# xmcd
#
# Track frame offsets: 
#        150
#        17134
#        33667
#        48904
#        67216
#        81088
#        87362
#        105043
#        121624
#        131836
#        142850
#        161047
#        175370
#        190942
#        201682
#        217387
#        233069
#        251193
#
# Disc length: 3482 seconds
#
# Revision: 0
# Processed by: cddbd v1.5.2PL0 Copyright (c) Steve Scherf et al.
# Submitted via: ExactAudioCopyFreeDBPlugin 1.0
#
DISCID=0a0d9812
DTITLE=Ted McCloskey - Sea Foam Green
DYEAR=1900
DGENRE=
TTITLE0=Blue as Blue
TTITLE1=Let's be Inbetween
TTITLE2=Cameras and Microphones
TTITLE3=Maybe she's Happy
TTITLE4=Flying too Close to the Sun
TTITLE5=Running on a Loop in my Brain
TTITLE6=Anonymous
TTITLE7=Tangible Tonight
TTITLE8=Painting Hearts on my Sleeve
TTITLE9=A Wreck around You
TTITLE10=Nothing's Worse than I Don't Know
TTITLE11=Just Enough Rope
TTITLE12=Got me Under Your Spell
TTITLE13=The More I Keep Digging
TTITLE14=Your Skin's not that Thick
TTITLE15=The Ballad of John and Jane
TTITLE16=This Town
TTITLE17=Sleep
EXTD=
EXTT0=
EXTT1=
EXTT2=
EXTT3=
EXTT4=
EXTT5=
EXTT6=
EXTT7=
EXTT8=
EXTT9=
EXTT10=
EXTT11=
EXTT12=
EXTT13=
EXTT14=
EXTT15=
EXTT16=
EXTT17=
PLAYORDER=
